<?xml version="1.0" standalone="no"?>
<!DOCTYPE svg PUBLIC "-//W3C//DTD SVG 20010904//EN"
 "http://www.w3.org/TR/2001/REC-SVG-20010904/DTD/svg10.dtd">
<svg version="1.0" xmlns="http://www.w3.org/2000/svg"
 width="454.000000pt" height="454.000000pt" viewBox="0 0 454.000000 454.000000"
 preserveAspectRatio="xMidYMid meet">
<metadata>
Created by potrace 1.14, written by Peter Selinger 2001-2017
</metadata>
<g transform="translate(0.000000,454.000000) scale(0.100000,-0.100000)"
fill="#000000" stroke="none">
<path d="M278 4533 c6 -2 18 -2 25 0 6 3 1 5 -13 5 -14 0 -19 -2 -12 -5z"/>
<path d="M3688 4533 c7 -3 16 -2 19 1 4 3 -2 6 -13 5 -11 0 -14 -3 -6 -6z"/>
<path d="M370 4510 c0 -5 5 -10 10 -10 6 0 10 5 10 10 0 6 -4 10 -10 10 -5 0
-10 -4 -10 -10z"/>
<path d="M1610 4495 c0 -8 7 -15 15 -15 8 0 15 4 15 9 0 5 -7 11 -15 15 -9 3
-15 0 -15 -9z"/>
<path d="M4228 4503 c12 -2 30 -2 40 0 9 3 -1 5 -23 4 -22 0 -30 -2 -17 -4z"/>
<path d="M1790 4489 c0 -5 5 -7 10 -4 6 3 10 8 10 11 0 2 -4 4 -10 4 -5 0 -10
-5 -10 -11z"/>
<path d="M1835 4490 c-3 -5 3 -10 15 -10 12 0 18 5 15 10 -3 6 -10 10 -15 10
-5 0 -12 -4 -15 -10z"/>
<path d="M2249 4479 c-10 -6 -7 -9 14 -9 29 0 35 5 14 13 -8 3 -20 1 -28 -4z"/>
<path d="M460 4465 c0 -8 5 -15 10 -15 6 0 10 7 10 15 0 8 -4 15 -10 15 -5 0
-10 -7 -10 -15z"/>
<path d="M2764 4462 c3 -6 -1 -12 -11 -14 -18 -3 -26 -58 -7 -58 33 0 55 68
24 78 -7 3 -10 0 -6 -6z"/>
<path d="M3290 4456 c0 -2 7 -7 16 -10 8 -3 12 -2 9 4 -6 10 -25 14 -25 6z"/>
<path d="M2220 4446 c0 -9 30 -14 35 -6 4 6 -3 10 -14 10 -12 0 -21 -2 -21 -4z"/>
<path d="M585 4400 c10 -11 20 -18 23 -15 7 6 -18 35 -31 35 -5 0 -2 -9 8 -20z"/>
<path d="M2390 4416 c0 -2 11 -6 25 -8 14 -3 25 -1 25 3 0 5 -11 9 -25 9 -14
0 -25 -2 -25 -4z"/>
<path d="M625 4370 c3 -5 11 -10 16 -10 6 0 7 5 4 10 -3 6 -11 10 -16 10 -6 0
-7 -4 -4 -10z"/>
<path d="M695 4360 c3 -5 8 -10 11 -10 2 0 4 5 4 10 0 6 -5 10 -11 10 -5 0 -7
-4 -4 -10z"/>
<path d="M2190 4276 c0 -9 30 -14 35 -6 4 6 -3 10 -14 10 -12 0 -21 -2 -21 -4z"/>
<path d="M2060 4250 c0 -5 5 -10 11 -10 5 0 7 5 4 10 -3 6 -8 10 -11 10 -2 0
-4 -4 -4 -10z"/>
<path d="M4200 4240 c0 -5 5 -10 11 -10 5 0 7 5 4 10 -3 6 -8 10 -11 10 -2 0
-4 -4 -4 -10z"/>
<path d="M2100 4190 c8 -5 22 -9 30 -9 10 0 8 3 -5 9 -27 12 -43 12 -25 0z"/>
<path d="M2494 4181 c-51 -31 -90 -97 -179 -301 -42 -95 -123 -270 -135 -290
-6 -8 -22 -39 -36 -67 -28 -55 -222 -317 -309 -417 -27 -32 -56 -68 -65 -81
-8 -13 -36 -49 -61 -82 -45 -57 -89 -137 -89 -161 0 -26 -52 -34 -110 -19
-124 34 -205 42 -308 29 -115 -14 -226 -39 -265 -58 -16 -8 -33 -14 -37 -14
-11 0 -85 -51 -121 -82 -42 -37 -88 -102 -115 -165 -59 -134 -72 -168 -83
-223 -4 -19 -12 -44 -18 -55 -18 -33 -31 -163 -27 -255 5 -98 66 -300 117
-385 17 -27 30 -55 30 -62 0 -7 4 -10 8 -7 4 2 10 0 14 -5 3 -5 29 -23 59 -40
45 -26 67 -32 147 -37 85 -6 100 -4 161 19 36 14 93 39 125 56 32 17 65 31 73
31 29 0 165 61 183 81 24 30 23 126 -3 182 -11 23 -40 63 -65 89 -25 27 -45
54 -45 62 0 32 32 146 65 235 59 158 75 158 76 -2 0 -62 4 -136 8 -164 4 -29
4 -53 0 -53 -5 0 0 -15 11 -32 10 -18 22 -56 26 -85 9 -75 46 -173 69 -189 17
-11 25 -11 49 1 38 20 52 11 176 -114 134 -134 170 -161 285 -213 33 -15 59
-32 58 -37 -2 -6 3 -8 11 -5 20 8 115 -34 150 -65 40 -37 60 -85 140 -341 15
-47 31 -94 36 -105 22 -47 49 -125 44 -125 -4 0 -2 -6 4 -13 27 -33 61 -107
56 -121 -5 -12 -2 -15 11 -10 14 6 16 3 11 -14 -6 -17 -4 -21 7 -16 9 3 24 -7
38 -28 57 -80 135 -123 204 -112 39 5 50 12 72 45 21 31 24 47 21 93 l-3 56
40 1 c34 1 37 2 15 9 -14 4 -34 6 -45 4 -16 -3 -25 6 -41 44 -56 125 -79 172
-86 172 -4 0 -8 11 -8 24 0 14 -4 28 -10 31 -5 3 -10 13 -10 21 0 8 -9 33 -20
57 -11 23 -24 56 -29 72 -5 17 -12 39 -16 50 -6 18 -4 17 14 -3 l20 -23 7 25
c3 15 1 32 -6 41 -10 12 -15 12 -36 -2 -21 -14 -24 -14 -24 0 0 9 -14 51 -32
94 -29 70 -32 88 -31 175 0 81 4 102 22 132 45 73 93 91 153 60 29 -15 56 -33
228 -153 36 -25 106 -72 155 -105 50 -33 128 -85 175 -116 126 -84 229 -129
293 -130 35 0 88 39 112 84 18 32 18 36 2 78 -22 56 -88 119 -207 198 -52 34
-107 71 -122 81 -15 11 -32 19 -37 19 -5 0 -16 6 -23 13 -7 7 -33 24 -58 37
-25 14 -53 31 -63 40 -11 8 -38 26 -62 40 -130 76 -243 159 -217 160 6 0 12 5
12 11 0 8 -4 8 -15 -1 -17 -14 -39 -4 -31 16 3 8 0 13 -6 11 -7 -1 -18 11 -26
26 -12 24 -12 31 2 52 32 48 58 45 271 -35 61 -23 114 -45 120 -51 5 -5 15 -9
22 -9 7 0 41 -13 75 -29 35 -15 92 -40 128 -55 90 -38 117 -50 177 -76 36 -16
69 -23 104 -21 90 3 113 29 112 131 0 121 -76 211 -243 291 -30 15 -75 34
-100 42 -43 15 -85 31 -202 78 -29 11 -66 25 -83 31 -34 11 -48 16 -125 48
-52 21 -66 28 -115 54 -49 27 -76 50 -96 82 -18 30 -20 39 -9 64 18 44 71 85
134 105 47 15 74 17 169 10 155 -11 238 -10 417 5 131 11 161 16 196 37 53 30
70 68 54 117 -15 46 -83 104 -129 111 -20 3 -55 10 -79 16 -24 5 -47 7 -52 4
-5 -3 -40 0 -77 6 -37 6 -75 11 -83 10 -8 0 -108 -1 -221 -1 -179 0 -223 3
-335 25 -193 37 -315 77 -364 117 -37 31 -72 114 -103 243 -14 57 -32 363 -28
469 2 37 18 81 68 185 58 119 66 145 70 206 4 62 2 73 -19 97 -31 37 -74 44
-114 19z m59 -91 c6 -25 -20 -50 -29 -26 -7 19 1 46 15 46 5 0 11 -9 14 -20z
m-283 -825 c0 -8 -4 -15 -9 -15 -5 0 -14 7 -21 15 -10 13 -9 15 9 15 12 0 21
-6 21 -15z m-330 -270 c9 -11 10 -19 2 -27 -14 -14 -32 -1 -32 23 0 23 13 25
30 4z m-200 -110 c0 -2 -10 -10 -22 -16 -21 -11 -22 -11 -9 4 13 16 31 23 31
12z m1525 -105 c3 -5 -1 -10 -9 -10 -9 0 -16 5 -16 10 0 6 4 10 9 10 6 0 13
-4 16 -10z m-1145 -95 c16 -19 3 -40 -16 -24 -15 13 -19 39 -5 39 5 0 14 -7
21 -15z m-765 -74 c3 -5 1 -12 -5 -16 -5 -3 -10 1 -10 9 0 18 6 21 15 7z m-82
-322 c4 -16 3 -18 -9 -8 -7 6 -11 15 -8 20 8 13 11 11 17 -12z m382 -79 c3 -5
1 -10 -4 -10 -6 0 -11 5 -11 10 0 6 2 10 4 10 3 0 8 -4 11 -10z m355 -45 c0
-8 -4 -15 -10 -15 -5 0 -10 7 -10 15 0 8 5 15 10 15 6 0 10 -7 10 -15z m-1166
-310 c3 -8 1 -15 -3 -15 -5 0 -11 7 -15 15 -3 8 -1 15 3 15 5 0 11 -7 15 -15z
m739 -56 c-5 -19 -7 -19 -15 -5 -10 18 -2 39 12 31 4 -3 6 -15 3 -26z m-918
-49 c-3 -5 -11 -10 -16 -10 -6 0 -7 5 -4 10 3 6 11 10 16 10 6 0 7 -4 4 -10z
m665 -6 c0 -8 -5 -12 -10 -9 -6 4 -8 11 -5 16 9 14 15 11 15 -7z m-183 0 c-3
-3 -12 -4 -19 -1 -8 3 -5 6 6 6 11 1 17 -2 13 -5z m223 -4 c0 -5 -4 -10 -10
-10 -5 0 -10 5 -10 10 0 6 5 10 10 10 6 0 10 -4 10 -10z m1325 -100 c8 -13 -5
-13 -25 0 -13 8 -13 10 2 10 9 0 20 -4 23 -10z m173 -55 c-3 -3 -9 2 -12 12
-6 14 -5 15 5 6 7 -7 10 -15 7 -18z m324 -117 c-7 -7 -12 -8 -12 -2 0 14 12
26 19 19 2 -3 -1 -11 -7 -17z m-698 -233 c3 -8 1 -15 -4 -15 -6 0 -10 7 -10
15 0 8 2 15 4 15 2 0 6 -7 10 -15z"/>
<path d="M2162 4105 c-11 -13 -10 -15 7 -15 14 0 19 5 15 15 -7 18 -6 18 -22
0z"/>
<path d="M3148 4113 c7 -3 16 -2 19 1 4 3 -2 6 -13 5 -11 0 -14 -3 -6 -6z"/>
<path d="M2045 4100 c3 -5 14 -10 23 -10 15 0 15 2 2 10 -20 13 -33 13 -25 0z"/>
<path d="M2251 4094 c0 -11 3 -14 6 -6 3 7 2 16 -1 19 -3 4 -6 -2 -5 -13z"/>
<path d="M2090 4090 c0 -12 8 -12 35 0 18 8 17 9 -7 9 -16 1 -28 -3 -28 -9z"/>
<path d="M750 4075 c0 -8 5 -15 10 -15 6 0 10 7 10 15 0 8 -4 15 -10 15 -5 0
-10 -7 -10 -15z"/>
<path d="M685 4010 c-3 -5 -1 -10 4 -10 6 0 11 5 11 10 0 6 -2 10 -4 10 -3 0
-8 -4 -11 -10z"/>
<path d="M4327 3969 c7 -7 15 -10 18 -7 3 3 -2 9 -12 12 -14 6 -15 5 -6 -5z"/>
<path d="M750 3790 c0 -5 5 -10 10 -10 6 0 10 5 10 10 0 6 -4 10 -10 10 -5 0
-10 -4 -10 -10z"/>
<path d="M1225 3660 c3 -5 10 -10 16 -10 5 0 9 5 9 10 0 6 -7 10 -16 10 -8 0
-12 -4 -9 -10z"/>
<path d="M95 3650 c3 -5 8 -10 11 -10 2 0 4 5 4 10 0 6 -5 10 -11 10 -5 0 -7
-4 -4 -10z"/>
<path d="M1460 3641 c-15 -29 -12 -33 10 -14 21 19 26 33 10 33 -5 0 -14 -9
-20 -19z"/>
<path d="M2810 3489 c0 -5 5 -7 10 -4 6 3 10 8 10 11 0 2 -4 4 -10 4 -5 0 -10
-5 -10 -11z"/>
<path d="M1305 3480 c3 -5 8 -10 11 -10 2 0 4 5 4 10 0 6 -5 10 -11 10 -5 0
-7 -4 -4 -10z"/>
<path d="M1244 3471 c3 -5 15 -7 26 -4 28 7 25 13 -6 13 -14 0 -23 -4 -20 -9z"/>
<path d="M1205 3400 c-3 -5 -1 -10 4 -10 6 0 11 5 11 10 0 6 -2 10 -4 10 -3 0
-8 -4 -11 -10z"/>
<path d="M2598 3353 c7 -3 16 -2 19 1 4 3 -2 6 -13 5 -11 0 -14 -3 -6 -6z"/>
<path d="M4125 3301 c-6 -11 9 -23 19 -14 9 9 7 23 -3 23 -6 0 -12 -4 -16 -9z"/>
<path d="M2960 3289 c0 -5 5 -7 10 -4 6 3 10 8 10 11 0 2 -4 4 -10 4 -5 0 -10
-5 -10 -11z"/>
<path d="M1130 3286 c0 -2 9 -6 20 -9 11 -3 18 -1 14 4 -5 9 -34 13 -34 5z"/>
<path d="M1780 3272 c0 -5 7 -13 16 -16 10 -4 14 -1 12 6 -5 15 -28 23 -28 10z"/>
<path d="M3270 3170 c0 -5 4 -10 9 -10 6 0 13 5 16 10 3 6 -1 10 -9 10 -9 0
-16 -4 -16 -10z"/>
<path d="M1495 3157 c-4 -10 -5 -21 -1 -24 10 -10 18 4 13 24 -4 17 -4 17 -12
0z"/>
<path d="M950 3050 c0 -5 5 -10 11 -10 5 0 7 5 4 10 -3 6 -8 10 -11 10 -2 0
-4 -4 -4 -10z"/>
<path d="M2815 2960 c-3 -5 -2 -10 4 -10 5 0 13 5 16 10 3 6 2 10 -4 10 -5 0
-13 -4 -16 -10z"/>
<path d="M3700 2944 c0 -8 5 -12 10 -9 6 3 10 10 10 16 0 5 -4 9 -10 9 -5 0
-10 -7 -10 -16z"/>
<path d="M3520 2940 c0 -5 5 -10 11 -10 5 0 7 5 4 10 -3 6 -8 10 -11 10 -2 0
-4 -4 -4 -10z"/>
<path d="M3795 2910 c3 -5 11 -10 16 -10 6 0 7 5 4 10 -3 6 -11 10 -16 10 -6
0 -7 -4 -4 -10z"/>
<path d="M708 2623 c7 -3 16 -2 19 1 4 3 -2 6 -13 5 -11 0 -14 -3 -6 -6z"/>
<path d="M4005 2240 c-3 -5 1 -10 9 -10 9 0 16 5 16 10 0 6 -4 10 -9 10 -6 0
-13 -4 -16 -10z"/>
<path d="M4065 1551 c-3 -6 4 -15 15 -21 22 -12 23 -10 14 14 -7 18 -20 21
-29 7z"/>
<path d="M4270 1461 c0 -5 5 -13 10 -16 6 -3 10 -2 10 4 0 5 -4 13 -10 16 -5
3 -10 2 -10 -4z"/>
<path d="M3935 1330 c-3 -5 1 -10 10 -10 9 0 13 5 10 10 -3 6 -8 10 -10 10 -2
0 -7 -4 -10 -10z"/>
<path d="M362 1161 c-24 -21 -20 -56 5 -47 8 3 18 6 22 6 5 0 8 13 7 30 -1 35
-3 36 -34 11z"/>
<path d="M698 1153 c6 -2 18 -2 25 0 6 3 1 5 -13 5 -14 0 -19 -2 -12 -5z"/>
<path d="M755 1150 c3 -5 8 -10 11 -10 2 0 4 5 4 10 0 6 -5 10 -11 10 -5 0 -7
-4 -4 -10z"/>
<path d="M868 1123 c6 -2 18 -2 25 0 6 3 1 5 -13 5 -14 0 -19 -2 -12 -5z"/>
<path d="M830 1096 c0 -9 30 -14 35 -6 4 6 -3 10 -14 10 -12 0 -21 -2 -21 -4z"/>
<path d="M1240 1080 c0 -5 6 -10 14 -10 8 0 18 5 21 10 3 6 -3 10 -14 10 -12
0 -21 -4 -21 -10z"/>
<path d="M1305 1080 c-3 -5 -1 -10 4 -10 6 0 11 5 11 10 0 6 -2 10 -4 10 -3 0
-8 -4 -11 -10z"/>
<path d="M1460 1081 c0 -5 7 -12 16 -15 22 -9 24 -8 18 9 -7 16 -34 21 -34 6z"/>
<path d="M3893 1063 c15 -2 39 -2 55 0 15 2 2 4 -28 4 -30 0 -43 -2 -27 -4z"/>
<path d="M4430 1036 c0 -2 9 -6 20 -9 11 -3 20 -1 20 4 0 5 -9 9 -20 9 -11 0
-20 -2 -20 -4z"/>
<path d="M3160 1019 c0 -5 5 -7 10 -4 6 3 10 8 10 11 0 2 -4 4 -10 4 -5 0 -10
-5 -10 -11z"/>
<path d="M4358 1023 c-29 -7 -21 -25 10 -21 15 2 26 7 25 13 -2 12 -12 14 -35
8z"/>
<path d="M3350 990 c-24 -8 -23 -8 8 -9 20 -1 31 3 27 9 -3 6 -7 10 -8 9 -1
-1 -13 -5 -27 -9z"/>
<path d="M28 983 c6 -2 18 -2 25 0 6 3 1 5 -13 5 -14 0 -19 -2 -12 -5z"/>
<path d="M3321 954 c0 -11 3 -14 6 -6 3 7 2 16 -1 19 -3 4 -6 -2 -5 -13z"/>
<path d="M1382 953 c-12 -2 -20 -8 -17 -13 6 -10 45 -1 45 11 0 5 -1 8 -2 8
-2 -1 -13 -4 -26 -6z"/>
<path d="M1970 951 c0 -5 7 -11 15 -15 8 -3 15 -1 15 3 0 5 -7 11 -15 15 -8 3
-15 1 -15 -3z"/>
<path d="M1305 940 c-3 -5 3 -10 15 -10 12 0 18 5 15 10 -3 6 -10 10 -15 10
-5 0 -12 -4 -15 -10z"/>
<path d="M1458 942 c10 -7 10 -14 -1 -35 -8 -15 -17 -24 -20 -20 -4 3 -7 -1
-7 -10 0 -23 12 -21 28 3 7 12 17 18 22 15 6 -3 10 -1 10 4 0 6 -5 11 -12 11
-6 0 -3 9 7 20 18 20 17 20 -11 20 -19 0 -24 -3 -16 -8z"/>
<path d="M780 879 c0 -5 5 -7 10 -4 6 3 10 8 10 11 0 2 -4 4 -10 4 -5 0 -10
-5 -10 -11z"/>
<path d="M1350 882 c0 -14 24 -32 43 -32 16 0 17 -3 7 -15 -7 -8 -8 -15 -2
-15 5 0 15 6 21 13 8 10 4 19 -19 35 -30 23 -50 28 -50 14z"/>
<path d="M760 845 c-12 -15 -9 -17 56 -39 18 -7 34 8 25 23 -7 10 -13 11 -30
2 -17 -10 -21 -9 -21 3 0 22 -16 28 -30 11z"/>
<path d="M1584 831 c9 -14 42 -19 57 -10 12 7 11 9 -1 10 -8 0 -25 2 -38 5
-13 2 -21 0 -18 -5z"/>
<path d="M1018 823 c7 -3 16 -2 19 1 4 3 -2 6 -13 5 -11 0 -14 -3 -6 -6z"/>
<path d="M1335 820 c3 -5 8 -10 11 -10 2 0 4 5 4 10 0 6 -5 10 -11 10 -5 0 -7
-4 -4 -10z"/>
<path d="M1048 793 c7 -3 16 -2 19 1 4 3 -2 6 -13 5 -11 0 -14 -3 -6 -6z"/>
<path d="M1326 786 c3 -7 -2 -20 -11 -29 -14 -14 -13 -16 5 -14 15 1 20 8 20
29 0 15 -4 28 -10 28 -5 0 -7 -6 -4 -14z"/>
<path d="M2347 784 c3 -8 0 -14 -6 -14 -6 0 -11 -4 -11 -9 0 -5 9 -7 19 -4 12
3 17 11 14 19 -4 10 0 12 13 8 11 -4 16 -4 13 0 -4 4 -16 8 -27 11 -15 2 -19
0 -15 -11z"/>
<path d="M1795 780 c3 -5 8 -10 11 -10 2 0 4 5 4 10 0 6 -5 10 -11 10 -5 0 -7
-4 -4 -10z"/>
<path d="M2050 779 c0 -5 5 -7 10 -4 6 3 10 8 10 11 0 2 -4 4 -10 4 -5 0 -10
-5 -10 -11z"/>
<path d="M2120 769 c0 -5 5 -7 10 -4 6 3 10 8 10 11 0 2 -4 4 -10 4 -5 0 -10
-5 -10 -11z"/>
<path d="M1830 756 c0 -9 5 -16 10 -16 6 0 10 4 10 9 0 6 -4 13 -10 16 -5 3
-10 -1 -10 -9z"/>
<path d="M3440 757 c0 -9 4 -18 9 -21 5 -4 8 1 7 9 -3 21 -16 31 -16 12z"/>
<path d="M2160 751 c0 -5 9 -7 20 -4 11 3 20 7 20 9 0 2 -9 4 -20 4 -11 0 -20
-4 -20 -9z"/>
<path d="M4425 750 c3 -5 11 -10 16 -10 6 0 7 5 4 10 -3 6 -11 10 -16 10 -6 0
-7 -4 -4 -10z"/>
<path d="M1210 746 c0 -2 7 -6 15 -10 8 -3 15 -1 15 4 0 6 -7 10 -15 10 -8 0
-15 -2 -15 -4z"/>
<path d="M1795 740 c3 -5 8 -10 11 -10 2 0 4 5 4 10 0 6 -5 10 -11 10 -5 0 -7
-4 -4 -10z"/>
<path d="M1965 740 c4 -6 11 -8 16 -5 14 9 11 15 -7 15 -8 0 -12 -5 -9 -10z"/>
<path d="M3415 740 c3 -5 8 -10 11 -10 2 0 4 5 4 10 0 6 -5 10 -11 10 -5 0 -7
-4 -4 -10z"/>
<path d="M4495 740 c-4 -6 0 -10 8 -10 8 0 18 -7 21 -16 4 -9 9 -15 11 -12 9
8 -5 36 -20 42 -8 3 -17 1 -20 -4z"/>
<path d="M2280 712 c0 -10 22 -32 32 -32 4 0 12 9 18 20 10 18 8 20 -20 20
-16 0 -30 -4 -30 -8z"/>
<path d="M3030 709 c0 -5 5 -7 10 -4 6 3 10 8 10 11 0 2 -4 4 -10 4 -5 0 -10
-5 -10 -11z"/>
<path d="M868 703 c6 -2 18 -2 25 0 6 3 1 5 -13 5 -14 0 -19 -2 -12 -5z"/>
<path d="M1995 700 c-3 -5 -2 -10 4 -10 5 0 13 5 16 10 3 6 2 10 -4 10 -5 0
-13 -4 -16 -10z"/>
<path d="M1516 691 c-3 -5 5 -8 19 -8 14 0 22 3 19 8 -3 5 -11 9 -19 9 -8 0
-16 -4 -19 -9z"/>
<path d="M2040 690 c20 -13 33 -13 25 0 -3 6 -14 10 -23 10 -15 0 -15 -2 -2
-10z"/>
<path d="M2070 661 c-24 -21 -29 -30 -20 -36 9 -5 11 -4 6 3 -4 7 -3 12 3 12
5 0 22 11 37 25 37 35 14 32 -26 -4z"/>
<path d="M2996 681 c-3 -4 6 -13 19 -19 15 -7 25 -8 25 -2 0 13 -38 32 -44 21z"/>
<path d="M1320 669 c0 -5 5 -7 10 -4 6 3 10 8 10 11 0 2 -4 4 -10 4 -5 0 -10
-5 -10 -11z"/>
<path d="M1487 673 c-4 -3 -7 -13 -7 -21 0 -19 86 -7 109 16 14 14 13 15 -14
8 -17 -4 -38 -9 -48 -11 -9 -2 -22 -7 -27 -10 -6 -3 -7 1 -4 9 6 17 2 21 -9 9z"/>
<path d="M1665 670 c3 -5 11 -10 16 -10 6 0 7 5 4 10 -3 6 -11 10 -16 10 -6 0
-7 -4 -4 -10z"/>
<path d="M1980 670 c-8 -5 -10 -10 -5 -10 6 0 17 5 25 10 8 5 11 10 5 10 -5 0
-17 -5 -25 -10z"/>
<path d="M4045 659 c-10 -15 3 -25 16 -12 7 7 7 13 1 17 -6 3 -14 1 -17 -5z"/>
<path d="M1778 653 c7 -3 16 -2 19 1 4 3 -2 6 -13 5 -11 0 -14 -3 -6 -6z"/>
<path d="M1940 645 c-11 -13 -10 -14 4 -9 9 3 16 10 16 15 0 13 -6 11 -20 -6z"/>
<path d="M4496 652 c-12 -11 -5 -20 19 -24 16 -3 25 -1 25 7 0 13 -35 27 -44
17z"/>
<path d="M1708 643 c6 -2 18 -2 25 0 6 3 1 5 -13 5 -14 0 -19 -2 -12 -5z"/>
<path d="M4070 631 c0 -12 35 -33 43 -25 5 6 16 -1 52 -34 8 -7 19 -10 25 -7
18 11 10 25 -14 25 -13 0 -30 9 -37 20 -16 22 -69 39 -69 21z"/>
<path d="M1280 621 c0 -6 9 -15 21 -21 15 -9 18 -15 10 -24 -6 -7 -7 -17 -3
-21 4 -5 1 -5 -5 -1 -7 4 -13 14 -13 22 0 8 -4 14 -10 14 -18 0 -11 -18 15
-38 15 -12 21 -22 14 -24 -9 -3 -9 -9 0 -24 9 -13 11 -14 7 -2 -2 9 -2 19 1
22 3 3 7 20 8 39 1 24 -4 37 -22 50 -13 10 -23 13 -23 8z"/>
<path d="M1845 620 c3 -5 8 -10 11 -10 2 0 4 5 4 10 0 6 -5 10 -11 10 -5 0 -7
-4 -4 -10z"/>
<path d="M2015 599 c-4 -6 -5 -12 -2 -15 2 -3 7 2 10 11 7 17 1 20 -8 4z"/>
<path d="M2343 580 c0 -24 3 -27 14 -19 11 9 11 15 1 28 -7 9 -13 17 -14 19 0
1 -1 -11 -1 -28z"/>
<path d="M1635 580 c-3 -5 -1 -10 4 -10 6 0 11 5 11 10 0 6 -2 10 -4 10 -3 0
-8 -4 -11 -10z"/>
<path d="M3056 578 c3 -4 33 -8 67 -7 49 0 57 2 39 10 -29 11 -113 9 -106 -3z"/>
<path d="M970 570 c0 -5 5 -10 10 -10 6 0 10 5 10 10 0 6 -4 10 -10 10 -5 0
-10 -4 -10 -10z"/>
<path d="M920 560 c0 -6 7 -10 15 -10 8 0 15 2 15 4 0 2 -7 6 -15 10 -8 3 -15
1 -15 -4z"/>
<path d="M2527 554 c3 -7 9 -14 14 -14 14 0 10 17 -5 23 -10 4 -13 1 -9 -9z"/>
<path d="M4200 560 c0 -5 5 -10 10 -10 6 0 10 5 10 10 0 6 -4 10 -10 10 -5 0
-10 -4 -10 -10z"/>
<path d="M1050 550 c0 -5 5 -10 10 -10 6 0 10 5 10 10 0 6 -4 10 -10 10 -5 0
-10 -4 -10 -10z"/>
<path d="M2035 550 c3 -5 8 -10 11 -10 2 0 4 5 4 10 0 6 -5 10 -11 10 -5 0 -7
-4 -4 -10z"/>
<path d="M3735 550 c3 -5 11 -10 16 -10 6 0 7 5 4 10 -3 6 -11 10 -16 10 -6 0
-7 -4 -4 -10z"/>
<path d="M4460 550 c0 -5 5 -10 10 -10 6 0 10 5 10 10 0 6 -4 10 -10 10 -5 0
-10 -4 -10 -10z"/>
<path d="M398 543 c7 -3 16 -2 19 1 4 3 -2 6 -13 5 -11 0 -14 -3 -6 -6z"/>
<path d="M2310 545 c0 -5 5 -17 10 -25 5 -8 10 -10 10 -5 0 6 -5 17 -10 25 -5
8 -10 11 -10 5z"/>
<path d="M4240 534 c0 -17 8 -23 35 -28 20 -4 33 -11 30 -17 -4 -5 -1 -9 4 -9
6 0 11 4 11 9 0 15 -31 42 -44 38 -6 -2 -16 3 -23 12 -11 14 -12 13 -13 -5z"/>
<path d="M3100 530 c20 -13 33 -13 25 0 -3 6 -14 10 -23 10 -15 0 -15 -2 -2
-10z"/>
<path d="M1725 520 c-3 -5 -1 -10 4 -10 6 0 11 5 11 10 0 6 -2 10 -4 10 -3 0
-8 -4 -11 -10z"/>
<path d="M2405 520 c-3 -5 -2 -10 4 -10 5 0 13 5 16 10 3 6 2 10 -4 10 -5 0
-13 -4 -16 -10z"/>
<path d="M3198 523 c7 -3 16 -2 19 1 4 3 -2 6 -13 5 -11 0 -14 -3 -6 -6z"/>
<path d="M2291 504 c0 -11 3 -14 6 -6 3 7 2 16 -1 19 -3 4 -6 -2 -5 -13z"/>
<path d="M2445 510 c3 -5 8 -10 11 -10 2 0 4 5 4 10 0 6 -5 10 -11 10 -5 0 -7
-4 -4 -10z"/>
<path d="M4492 503 c2 -10 11 -19 21 -21 16 -3 17 -1 5 17 -16 25 -31 27 -26
4z"/>
<path d="M1932 480 c-24 -31 -28 -45 -12 -35 10 6 44 65 37 65 -2 0 -13 -13
-25 -30z"/>
<path d="M3930 506 c0 -2 7 -7 16 -10 8 -3 12 -2 9 4 -6 10 -25 14 -25 6z"/>
<path d="M4015 490 c3 -5 17 -10 31 -10 13 0 24 5 24 10 0 6 -14 10 -31 10
-17 0 -28 -4 -24 -10z"/>
<path d="M1677 483 c-4 -3 -7 -11 -7 -17 0 -6 5 -5 12 2 6 6 9 14 7 17 -3 3
-9 2 -12 -2z"/>
<path d="M4330 481 c0 -5 5 -13 10 -16 6 -3 10 -2 10 4 0 5 -4 13 -10 16 -5 3
-10 2 -10 -4z"/>
<path d="M1160 460 c0 -5 7 -10 16 -10 8 0 12 5 9 10 -3 6 -10 10 -16 10 -5 0
-9 -4 -9 -10z"/>
<path d="M3120 460 c0 -5 5 -10 10 -10 6 0 10 5 10 10 0 6 -4 10 -10 10 -5 0
-10 -4 -10 -10z"/>
<path d="M4280 450 c0 -19 3 -21 12 -12 9 9 9 15 0 24 -9 9 -12 7 -12 -12z"/>
<path d="M1838 453 c7 -3 16 -2 19 1 4 3 -2 6 -13 5 -11 0 -14 -3 -6 -6z"/>
<path d="M1501 434 c0 -11 3 -14 6 -6 3 7 2 16 -1 19 -3 4 -6 -2 -5 -13z"/>
<path d="M4407 433 c9 -27 24 -43 34 -37 10 6 -18 54 -32 54 -5 0 -6 -8 -2
-17z"/>
<path d="M1936 431 c-3 -4 6 -8 20 -9 13 -1 24 0 24 2 0 7 -40 14 -44 7z"/>
<path d="M2193 433 c9 -2 23 -2 30 0 6 3 -1 5 -18 5 -16 0 -22 -2 -12 -5z"/>
<path d="M3887 424 c6 -15 23 -19 23 -5 0 5 -7 11 -14 14 -10 4 -13 1 -9 -9z"/>
<path d="M1240 420 c0 -5 9 -10 19 -10 11 0 23 5 26 10 4 6 -5 10 -19 10 -14
0 -26 -4 -26 -10z"/>
<path d="M1310 420 c0 -5 15 -10 34 -10 19 0 38 5 41 10 4 6 -10 10 -34 10
-23 0 -41 -4 -41 -10z"/>
<path d="M2625 400 c-3 -5 1 -10 10 -10 9 0 13 5 10 10 -3 6 -8 10 -10 10 -2
0 -7 -4 -10 -10z"/>
<path d="M977 389 c7 -7 15 -10 18 -7 3 3 -2 9 -12 12 -14 6 -15 5 -6 -5z"/>
<path d="M1940 385 c0 -8 4 -15 10 -15 5 0 7 7 4 15 -4 8 -8 15 -10 15 -2 0
-4 -7 -4 -15z"/>
<path d="M3820 391 c0 -9 30 -24 36 -18 2 1 -6 8 -16 15 -11 7 -20 8 -20 3z"/>
<path d="M2288 383 c7 -3 16 -2 19 1 4 3 -2 6 -13 5 -11 0 -14 -3 -6 -6z"/>
<path d="M2250 369 c0 -5 5 -7 10 -4 6 3 10 8 10 11 0 2 -4 4 -10 4 -5 0 -10
-5 -10 -11z"/>
<path d="M2950 352 c0 -12 19 -26 26 -19 2 2 -2 10 -11 17 -9 8 -15 8 -15 2z"/>
<path d="M2401 304 c0 -11 3 -14 6 -6 3 7 2 16 -1 19 -3 4 -6 -2 -5 -13z"/>
<path d="M2440 316 c0 -2 7 -7 16 -10 8 -3 12 -2 9 4 -6 10 -25 14 -25 6z"/>
<path d="M3695 300 c3 -5 8 -10 11 -10 2 0 4 5 4 10 0 6 -5 10 -11 10 -5 0 -7
-4 -4 -10z"/>
<path d="M2355 290 c-3 -5 -1 -10 4 -10 6 0 11 5 11 10 0 6 -2 10 -4 10 -3 0
-8 -4 -11 -10z"/>
<path d="M2771 274 c0 -11 3 -14 6 -6 3 7 2 16 -1 19 -3 4 -6 -2 -5 -13z"/>
<path d="M1939 263 c-13 -16 -12 -17 4 -4 16 13 21 21 13 21 -2 0 -10 -8 -17
-17z"/>
<path d="M2535 270 c-4 -6 -5 -10 -3 -11 25 -6 38 -6 38 1 0 12 -29 20 -35 10z"/>
<path d="M950 260 c0 -5 5 -10 11 -10 5 0 7 5 4 10 -3 6 -8 10 -11 10 -2 0 -4
-4 -4 -10z"/>
<path d="M1740 260 c0 -5 5 -10 10 -10 6 0 10 5 10 10 0 6 -4 10 -10 10 -5 0
-10 -4 -10 -10z"/>
<path d="M3846 250 c-11 -3 -15 -9 -10 -13 10 -6 42 9 34 16 -3 3 -14 1 -24
-3z"/>
<path d="M1350 225 c-7 -9 -8 -15 -2 -15 5 0 12 7 16 15 3 8 4 15 2 15 -2 0
-9 -7 -16 -15z"/>
<path d="M2330 220 c-8 -5 -10 -10 -5 -10 6 0 17 5 25 10 8 5 11 10 5 10 -5 0
-17 -5 -25 -10z"/>
<path d="M1205 210 c3 -5 8 -10 11 -10 2 0 4 5 4 10 0 6 -5 10 -11 10 -5 0 -7
-4 -4 -10z"/>
<path d="M2113 205 c0 -8 4 -12 9 -9 5 3 6 10 3 15 -9 13 -12 11 -12 -6z"/>
<path d="M2060 201 c0 -5 7 -12 16 -15 24 -9 28 -7 14 9 -14 17 -30 20 -30 6z"/>
<path d="M1021 184 c0 -11 3 -14 6 -6 3 7 2 16 -1 19 -3 4 -6 -2 -5 -13z"/>
<path d="M2713 183 c9 -2 25 -2 35 0 9 3 1 5 -18 5 -19 0 -27 -2 -17 -5z"/>
<path d="M3780 180 c0 -5 5 -10 11 -10 5 0 7 5 4 10 -3 6 -8 10 -11 10 -2 0
-4 -4 -4 -10z"/>
<path d="M2155 171 c-3 -5 -1 -12 5 -16 12 -7 30 2 30 16 0 12 -27 12 -35 0z"/>
<path d="M970 150 c0 -19 3 -21 12 -12 9 9 9 15 0 24 -9 9 -12 7 -12 -12z"/>
<path d="M1031 144 c0 -11 3 -14 6 -6 3 7 2 16 -1 19 -3 4 -6 -2 -5 -13z"/>
<path d="M4475 130 c3 -5 8 -10 11 -10 2 0 4 5 4 10 0 6 -5 10 -11 10 -5 0 -7
-4 -4 -10z"/>
<path d="M4225 120 c-16 -7 -17 -9 -3 -9 9 -1 20 4 23 9 7 11 7 11 -20 0z"/>
<path d="M50 100 c8 -5 20 -10 25 -10 6 0 3 5 -5 10 -8 5 -19 10 -25 10 -5 0
-3 -5 5 -10z"/>
<path d="M1330 100 c0 -5 7 -10 15 -10 8 0 15 5 15 10 0 6 -7 10 -15 10 -8 0
-15 -4 -15 -10z"/>
<path d="M3725 100 c-3 -5 -1 -10 4 -10 6 0 11 5 11 10 0 6 -2 10 -4 10 -3 0
-8 -4 -11 -10z"/>
<path d="M850 91 c0 -5 -9 -11 -20 -14 -33 -8 -23 -24 13 -19 17 3 27 7 20 9
-7 2 -9 11 -6 19 3 8 2 14 -1 14 -3 0 -6 -4 -6 -9z"/>
<path d="M895 90 c-4 -6 -4 -10 0 -10 3 0 1 -9 -5 -20 -9 -16 -8 -20 5 -20 9
0 15 6 12 13 -2 6 3 17 11 23 13 9 13 12 -1 17 -9 3 -19 2 -22 -3z"/>
<path d="M945 90 c3 -5 8 -10 11 -10 2 0 4 5 4 10 0 6 -5 10 -11 10 -5 0 -7
-4 -4 -10z"/>
<path d="M3620 90 c0 -5 5 -10 11 -10 5 0 7 5 4 10 -3 6 -8 10 -11 10 -2 0 -4
-4 -4 -10z"/>
<path d="M4348 93 c6 -2 18 -2 25 0 6 3 1 5 -13 5 -14 0 -19 -2 -12 -5z"/>
<path d="M1027 77 l23 -12 -23 -27 c-12 -14 -31 -28 -42 -31 -14 -3 -11 -5 10
-6 34 -1 93 33 76 43 -14 9 -14 26 0 26 5 0 7 -4 4 -10 -9 -15 11 -12 24 4 9
11 7 15 -11 20 -13 3 -36 6 -53 6 -29 -1 -29 -1 -8 -13z"/>
<path d="M1161 69 c-10 -17 -15 -18 -27 -9 -11 10 -14 9 -14 -5 0 -13 7 -16
32 -13 19 2 33 -2 35 -10 3 -7 -1 -10 -11 -6 -11 4 -16 1 -16 -10 0 -11 9 -16
29 -16 29 0 30 0 15 28 -7 15 -14 32 -14 39 0 21 -16 22 -29 2z"/>
<path d="M1233 76 c13 -10 15 -16 6 -22 -9 -5 -7 -11 6 -20 16 -12 21 -11 37
3 11 10 18 11 18 5 0 -7 4 -12 10 -12 17 0 -1 30 -19 30 -9 0 -25 7 -35 15
-11 8 -25 15 -30 15 -6 0 -3 -7 7 -14z"/>
<path d="M1581 78 c0 -7 4 -22 9 -33 7 -17 9 -15 9 13 1 17 -3 32 -9 32 -5 0
-10 -6 -9 -12z"/>
<path d="M1685 81 c3 -5 -3 -12 -12 -14 -12 -3 -9 -5 8 -6 21 -1 25 -5 24 -29
-1 -15 0 -19 2 -10 5 20 23 25 23 6 0 -6 3 -9 6 -6 3 4 1 16 -5 27 -11 19 -9
20 21 15 18 -3 48 -10 66 -14 21 -6 32 -5 32 2 0 7 34 9 100 6 55 -3 99 -3 97
-1 -12 11 -67 16 -196 19 -79 2 -146 5 -149 8 -9 10 -24 7 -17 -3z"/>
<path d="M2523 82 c-24 -2 -43 -6 -43 -10 0 -7 54 -6 100 1 32 5 -14 12 -57 9z"/>
<path d="M1480 40 c0 -37 2 -40 28 -40 20 0 23 3 12 9 -8 6 -18 7 -22 5 -12
-8 -10 30 3 43 7 7 6 12 -5 16 -13 5 -16 -1 -16 -33z"/>
<path d="M1627 73 c-4 -3 -7 -11 -7 -17 0 -6 5 -5 12 2 6 6 9 14 7 17 -3 3 -9
2 -12 -2z"/>
<path d="M2696 64 c-5 -14 -4 -15 9 -4 17 14 19 20 6 20 -5 0 -12 -7 -15 -16z"/>
<path d="M1205 60 c3 -5 8 -10 11 -10 2 0 4 5 4 10 0 6 -5 10 -11 10 -5 0 -7
-4 -4 -10z"/>
<path d="M2220 50 c24 -24 26 -40 5 -40 -8 0 -14 3 -14 8 3 19 -2 22 -16 8
-12 -12 -22 -13 -41 -6 -32 12 -34 12 -34 -1 0 -5 5 -7 10 -4 6 3 10 1 10 -4
0 -7 23 -11 55 -11 57 0 61 3 49 48 -4 13 -14 22 -25 22 -18 0 -18 -1 1 -20z"/>
<path d="M2608 63 c7 -3 16 -2 19 1 4 3 -2 6 -13 5 -11 0 -14 -3 -6 -6z"/>
<path d="M2375 50 c3 -5 16 -10 28 -10 18 0 19 2 7 10 -20 13 -43 13 -35 0z"/>
<path d="M2758 53 c7 -3 16 -2 19 1 4 3 -2 6 -13 5 -11 0 -14 -3 -6 -6z"/>
<path d="M2790 50 c0 -5 15 -10 33 -10 24 0 28 3 17 10 -20 13 -50 13 -50 0z"/>
<path d="M2086 35 c4 -8 8 -15 10 -15 2 0 4 7 4 15 0 8 -4 15 -10 15 -5 0 -7
-7 -4 -15z"/>
<path d="M1103 27 c1 -7 -4 -11 -10 -10 -7 2 -13 -2 -13 -8 0 -14 42 -7 47 7
2 6 -3 14 -11 17 -9 4 -15 1 -13 -6z"/>
<path d="M1421 24 c0 -11 3 -14 6 -6 3 7 2 16 -1 19 -3 4 -6 -2 -5 -13z"/>
<path d="M950 19 c0 -5 5 -7 10 -4 6 3 10 8 10 11 0 2 -4 4 -10 4 -5 0 -10 -5
-10 -11z"/>
<path d="M1235 10 c-4 -6 6 -10 24 -8 32 2 33 10 1 15 -10 1 -22 -2 -25 -7z"/>
<path d="M1580 10 c0 -5 5 -10 10 -10 6 0 10 5 10 10 0 6 -4 10 -10 10 -5 0
-10 -4 -10 -10z"/>
<path d="M1910 10 c0 -5 5 -10 10 -10 6 0 10 5 10 10 0 6 -4 10 -10 10 -5 0
-10 -4 -10 -10z"/>
<path d="M2510 9 c-22 -6 -20 -7 13 -8 38 -1 47 3 25 11 -7 3 -24 1 -38 -3z"/>
<path d="M3210 10 c0 -5 5 -10 10 -10 6 0 10 5 10 10 0 6 -4 10 -10 10 -5 0
-10 -4 -10 -10z"/>
<path d="M3240 10 c0 -5 9 -10 21 -10 11 0 17 4 14 10 -8 13 -35 13 -35 0z"/>
</g>
</svg>
